<svg id="SvgjsSvg1048" width="288" height="288" xmlns="http://www.w3.org/2000/svg" version="1.1" xmlns:xlink="http://www.w3.org/1999/xlink" xmlns:svgjs="http://svgjs.com/svgjs"><rect id="SvgjsRect1065" width="288" height="288" rx="20" ry="20" transform="matrix(0.7916,0,0,0.7916,30.009600000000006,30.009600000000006)" fill="#969696"></rect><defs id="SvgjsDefs1049"></defs><g id="SvgjsG1050" transform="matrix(0.4652,0,0,0.4652,79.4178,77.0112)"><svg xmlns="http://www.w3.org/2000/svg" viewBox="0 0 32 32" width="288" height="288"><g data-name="12.time" fill="#12f744" class="color000 svgShape"><path fill="#00c6ff" d="m16.5 1 .33 1.03h1.08l-.87.63.33 1.03-.87-.63-.87.63.33-1.03-.87-.63h1.08L16.5 1zM13 14H8a1 1 0 0 1 0-2h5a1 1 0 0 1 0 2zm-4 3H6a1 1 0 0 1 0-2h3a1 1 0 0 1 0 2zm14-4h-3a1 1 0 0 1 0-2h3a1 1 0 0 1 0 2zm0 11a1 1 0 0 1-1-1v-4a1 1 0 0 1 2 0v4a1 1 0 0 1-1 1z" class="color0071bc svgShape"></path><path fill="#00c6ff" d="M26 27a1 1 0 0 1-.71-.29l-3-3a1 1 0 0 1 1.42-1.42l3 3a1 1 0 0 1 0 1.42A1 1 0 0 1 26 27Z" class="color0071bc svgShape"></path><circle cx="23" cy="23" r="2" fill="#00c6ff" class="color0071bc svgShape"></circle><path fill="#00c6ff" d="M10 31a1 1 0 0 1-1-1v-7a1 1 0 0 1 2 0v7a1 1 0 0 1-1 1zm5 0a1 1 0 0 1-1-1v-2a1 1 0 0 1 2 0v2a1 1 0 0 1-1 1zm-8-7a1 1 0 0 1-1-1v-4a1 1 0 0 1 2 0v4a1 1 0 0 1-1 1zm6-1a1 1 0 0 1-1-1v-3a1 1 0 0 1 2 0v3a1 1 0 0 1-1 1z" class="color0071bc svgShape"></path><circle cx="16" cy="13" r="1" fill="#00c6ff" class="color0071bc svgShape"></circle><path d="M5.05 20H5a1 1 0 0 1-.91-1.09 12 12 0 0 1 23.43-2.42 1 1 0 0 1-.66 1.25 1 1 0 0 1-1.25-.66A10 10 0 0 0 6 19.09a1 1 0 0 1-.95.91zM19 5.91a3.68 3.68 0 0 1-2.41 1.39 3.22 3.22 0 0 1-2.86-1 2.94 2.94 0 0 1-.54-2.79 3 3 0 0 1 1.6-1.81 3.86 3.86 0 0 0-.33 2 1.61 1.61 0 0 0 .69 1.2 2.37 2.37 0 0 0 2.47-.35h.08A1 1 0 0 1 19 5.91z" fill="#12f744" class="color000 svgShape"></path><path d="M16 10a1 1 0 0 1-1-1V7a1 1 0 0 1 2 0v2a1 1 0 0 1-1 1zm-.92 14H3a1 1 0 0 1-1-1v-4a1 1 0 0 1 1-1h13.92a1 1 0 0 1 0 2H4v2h11.08a1 1 0 0 1 0 2z" fill="#12f744" class="color000 svgShape"></path><path d="M23 31a8 8 0 1 1 8-8 8 8 0 0 1-8 8Zm0-14a6 6 0 1 0 6 6 6 6 0 0 0-6-6Z" fill="#12f744" class="color000 svgShape"></path><path d="M23 31H5a1 1 0 0 1-1-1v-7a1 1 0 0 1 1-1h10.08a1 1 0 0 1 0 2H6v5h17a1 1 0 0 1 0 2Z" fill="#12f744" class="color000 svgShape"></path></g></svg></g></svg>